mtllib materials.mtl
v -0.006347805 -0.3219161 0.0008954108
v -0.006347805 -0.06568599 -0.1446383
v -0.01565504 -0.06568599 -0.1446383
v -0.006347805 -0.02631605 -0.1536242
v -0.006347805 0.01305425 -0.1626102
v -0.006347805 0.09179449 -0.1805821
v -0.006347805 0.1233668 -0.1554039
v -0.01565504 0.09179449 -0.1605821
v -0.006347775 0.2180839 0.0008954704
v 0.003652185 0.1665118 0.05683857
v -0.00565505 0.1565118 0.04683858
v -0.006347805 0.09179449 0.1823731
v -0.006347805 0.01305413 0.1644011
v -0.006347805 -0.02631593 0.1554151
v -0.006347805 -0.06568599 0.1464292
v -0.01565504 -0.06568599 0.1464292
v 0.05251613 0.06461549 0.0007518232
v 0.02308416 -0.09142148 0.000823617
v -0.006347805 0.1233666 0.1571951
v -0.01565504 0.1133668 -0.145404
v -0.01565504 0.09179449 0.1623731
v -0.01565504 0.1133666 0.1471951
v 0.003652185 0.1349392 -0.09022585
v 0.003652185 0.1665115 -0.05504772
v -0.00565505 0.1249392 -0.09022585
v -0.00565505 0.1565115 -0.04504773
v 0.003652185 0.1349397 0.1120165
v -0.00565505 0.1249397 0.1120165
v -0.01565501 0.2080839 0.0008955002
v -0.0245302 -0.009222746 -0.08384636
v -0.02426058 -0.01378763 -0.08022928
v 0.01176217 -0.01932144 -0.08989817
v 0.01149258 -0.01475668 -0.09351525
v -0.02286687 -0.01452303 -0.0746159
v 0.01315588 -0.02005696 -0.08428478
v -0.02116549 -0.01099825 -0.07029444
v 0.01485729 -0.01653218 -0.07996336
v -0.02015305 -0.005278111 -0.06979638
v 0.01586971 -0.01081204 -0.0794653
v -0.02042264 -0.0007133484 -0.07341349
v 0.01560012 -0.006247282 -0.08308238
v -0.02181637 2.217293E-05 -0.07902688
v 0.01420641 -0.005511761 -0.08869576
v -0.02351776 -0.003502607 -0.0833483
v 0.01250499 -0.009036541 -0.09301719
v -0.02705315 0.0007572174 -0.08165774
v -0.0232622 -0.001266599 -0.06825396
v -0.02882987 -0.0007528067 -0.06660169
v -0.03387722 0.000203371 -0.06935918
v -0.03544748 0.001041651 -0.07491124
v -0.03262085 0.001271009 -0.08000544
v -0.01478684 0.0486896 -0.07488576
v -0.02004537 0.04941559 -0.07747546
v -0.01335588 0.04785514 -0.06929561
v -0.01616237 0.04716086 -0.06413502
v -0.02172732 0.04757333 -0.06244558
v -0.02679974 0.04852509 -0.06515822
v -0.02840811 0.04945922 -0.07068402
v -0.0256103 0.04982805 -0.07578599
v -0.01190454 0.05153322 -0.06574494
v -0.01127431 0.05728245 -0.06500769
v -0.01202694 0.06197834 -0.06838033
v -0.01372156 0.0628705 -0.07388726
v -0.01536542 0.05943584 -0.07830259
v -0.01599562 0.05368662 -0.07903981
v 0.02109942 0.04561734 -0.08659741
v 0.02022535 0.05049515 -0.09097123
v 0.02194476 0.04493499 -0.08086911
v 0.02292341 0.04872155 -0.07727081
v 0.02333805 0.05449867 -0.07660449
v 0.02284095 0.05910349 -0.08014607
v 0.02172333 0.05983829 -0.085821
v 0.02063996 0.05627251 -0.09030494
v -0.02441192 0.07662177 0.07263401
v -0.02199951 0.08093405 0.06741056
v 0.02119523 0.07710266 0.08419678
v 0.01878282 0.07279062 0.08942023
v -0.01949731 0.07993627 0.06074408
v 0.02369744 0.07610488 0.07753035
v -0.01837105 0.07421327 0.05653974
v 0.0248237 0.07038188 0.07332602
v -0.01928052 0.06711721 0.05726036
v 0.02391425 0.06328583 0.07404664
v -0.02169287 0.06280518 0.06248382
v 0.02150184 0.05897379 0.07927009
v -0.02419516 0.06380296 0.06915027
v 0.01899964 0.05997157 0.08593652
v -0.02532136 0.06952596 0.07335463
v 0.01787338 0.06569457 0.09014085
v -0.03087682 0.06541967 0.07155779
v -0.02425981 0.06318569 0.05566621
v -0.03079107 0.06413484 0.05281323
v -0.03734753 0.06546021 0.05545041
v -0.04008839 0.06638575 0.06203294
v -0.03740811 0.06636882 0.06870484
v -0.03379649 0.004007459 0.07512257
v -0.04049584 0.005632281 0.07747492
v -0.031216 0.003117085 0.06847075
v -0.03369123 0.003648639 0.06162935
v -0.04017726 0.004705429 0.05871177
v -0.04675674 0.00603354 0.06128973
v -0.04957527 0.006855249 0.06785318
v -0.04698187 0.006689072 0.07455733
v -0.03052166 -0.002509236 0.06518206
v -0.03186375 -0.009563208 0.06555408
v -0.03486457 -0.0139178 0.07042563
v -0.03776628 -0.01302195 0.07694295
v -0.03886896 -0.007400513 0.08128843
v -0.03752688 -0.0003466606 0.08091637
v 0.008097947 -0.002129912 0.09483823
v 0.004780531 -0.006409764 0.100931
v 0.009950846 -0.003025532 0.08794889
v 0.01005659 -0.0086236 0.08454248
v 0.00844416 -0.01561761 0.08496824
v 0.005758613 -0.01991487 0.09006932
v 0.003573179 -0.01899779 0.09685764
v 0.003168106 -0.01340377 0.1013567
vn 1.246165E-07 -0.4938771 -0.8695318
vn -0.9972954 -0.06621967 -0.03188972
vn -0.8592992 0.3188988 -0.3998857
vn -0.8321487 0.3255959 0.4489051
vn -0.9972954 0.04582544 -0.05746327
vn 3.03763E-06 -0.4938772 0.8695316
vn -0.917976 0.03995247 0.3946185
vn 0.9455576 -0.07242054 0.3172952
vn -0.9400425 0.1486108 -0.306977
vn 0.9573059 -0.1806726 -0.2256611
vn 0.9681975 -0.1235618 0.2175457
vn 0.9377562 0.2165344 0.2715256
vn 0.9453931 -0.07252669 -0.3177603
vn 0.9375961 0.2168039 -0.2718633
vn 0.9573977 -0.1804824 0.2254233
vn 0.9681309 -0.1236889 -0.2177696
vn -0.9078322 -0.2412985 0.3429514
vn -0.9182371 0.03989181 -0.3940169
vn -0.908086 -0.2409818 -0.3425021
vn -0.9396093 0.1464123 0.3093507
vn -0.6245106 0.581247 -0.5216688
vn -0.7356606 0.67731 -0.007387157
vn -0.8321487 0.3255955 -0.4489056
vn -0.7369461 0.6758773 0.01001647
vn -0.8592982 0.3188989 0.3998876
vn -0.6820172 0.6347702 0.3632072
vn -0.8687646 -0.4125318 -0.2739807
vn 0.9215493 0.3533158 0.1609815
vn -0.8684206 -0.4129177 0.2744899
vn 0.9214095 0.3535638 -0.1612364
vn 0.9179921 0.2951562 -0.2649025
vn -0.8677396 -0.4073956 0.2847049
vn -0.8573534 -0.4500666 0.2497704
vn 0.9077442 0.3664031 -0.204326
vn -0.8703113 -0.4432386 -0.2147041
vn 0.9219273 0.3362155 0.1923781
vn 0.9362192 0.2295992 0.2660409
vn -0.9071712 -0.2484185 -0.3396005
vn 0.9455576 -0.07242054 0.3172952
vn 0.9453931 -0.07252669 -0.3177603
vn 0.9453931 -0.07252669 -0.3177603
vn 0.9455576 -0.07242054 0.3172952
vn -0.5376093 0.5003635 0.6786845
vn -0.537613 0.5003611 -0.6786832
vn -0.8205049 0.5144601 0.2492037
vn -0.8313912 0.4554847 -0.3183115
vn -0.7319689 0.6812613 -0.01022372
vn -0.731913 0.681209 0.01604849
vn -0.8315353 0.3196366 0.4542925
vn -0.9058098 -0.0426773 0.4215297
vn -0.831535 0.3196374 -0.4542924
vn -0.9058102 -0.04267696 -0.4215288
vn 0.2918166 0.6045467 0.7411929
vn 0.6604058 -0.4420045 -0.6070391
vn 0.1736477 0.9810961 0.08542377
vn 0.7223769 -0.6394774 -0.2631355
vn -0.04624173 0.7829327 -0.6203856
vn 0.8376929 -0.5355551 0.1070106
vn -0.2390433 0.1261381 -0.9627814
vn 0.9388036 -0.1911137 0.2865722
vn 0.955356 -0.1467645 -0.2564281
vn 0 0 0
vn 0.7754615 0.4196254 0.471778
vn 0.280889 -0.1324797 0.950553
vn -0.4675602 -0.5858601 0.6619334
vn -0.7739804 -0.6234975 0.1104783
vn -0.7724678 -0.4218026 -0.4747385
vn -0.2914068 0.1340465 -0.9471611
vn 0.4501172 0.01096216 -0.8929024
vn 0.9600015 -0.1181589 -0.2538422
vn 0.8712391 -0.1669888 0.4615813
vn 0.2720014 -0.1220672 0.9545236
vn -0.4802958 -0.005905001 0.8770869
vn -0.9514412 0.1133416 0.2862057
vn -0.8654286 0.1660267 -0.4727249
vn -0.2721009 0.1212377 -0.9546009
vn 0.7350051 -0.5982003 0.3192553
vn 0.2862598 -0.05577549 0.9565275
vn -0.3176421 0.5361145 0.782103
vn -0.6064497 0.7359856 0.3009052
vn -0.6875708 0.6466458 -0.3302965
vn -0.2863437 0.05477717 -0.95656
vn -0.2849969 -0.6525747 -0.7020851
vn 0.2097715 -0.5054584 -0.8369635
vn -0.5010949 0.1638964 -0.8497307
vn 0.4914088 -0.1635664 0.8554319
vn -0.1197604 -0.985941 -0.1165252
vn 0.165757 -0.717989 0.6760302
vn 0.3027673 -0.1538056 0.9405723
vn 0.3017903 0.5875719 0.7507879
vn 0.1249907 0.984748 0.1210326
vn -0.1227765 0.8049752 -0.5804663
vn -0.2969449 0.1534127 -0.9424907
vn 0.9749217 -0.04482535 -0.217988
vn 0.9697513 -0.04186048 -0.2404795
vn 0.9891035 -0.008491574 -0.1469775
vn 0.1566385 -0.7959564 -0.5847374
vn 0.7087883 0.3472662 0.6140239
vn -0.1264854 -0.9868925 0.1002228
vn 0.8572665 0.4473983 0.2548117
vn -0.3355159 -0.5997204 0.726474
vn 0.9668879 0.2443546 -0.07361198
vn -0.3480058 0.1387597 0.9271665
vn 0.9734379 -0.142925 -0.1788604
vn 0.9289206 -0.08239488 0.3609954
vn 0 0 0
vn 0.6485535 -0.7063648 -0.283597
vn 0.3885814 -0.1422541 -0.9103671
vn -0.2083136 0.5521028 -0.8073339
vn -0.5350038 0.7827368 -0.3179528
vn -0.6453056 0.7081429 0.2865562
vn -0.3987443 0.1430952 0.9058293
vn 0.3468467 0.03790861 0.9371554
vn 0.9248449 -0.1110699 0.3637659
vn 0.9170586 -0.1808681 -0.3553734
vn 0.3773228 -0.1502915 -0.9138052
vn -0.3783762 -0.03099514 -0.9251328
vn -0.9124731 0.1067987 -0.394952
vn -0.9122124 0.182318 0.366918
vn -0.3771714 0.1511135 0.9137321
vn 0.9067981 0.2904794 -0.3055143
vn 0.3708477 -0.2169487 -0.9029979
vn -0.3971934 -0.5671394 -0.7215194
vn -0.7734092 -0.5782541 -0.2597319
vn -0.8774915 -0.3472159 0.3308321
vn -0.3706263 0.217916 0.9028558
vn -0.1321877 0.8314104 0.5397065
vn 0.2808095 0.5797145 0.7649033
vn -0.5983704 0.1553011 0.7860244
vn 0.5895717 -0.1539891 -0.7929014
vn 0.176405 0.982296 -0.06305417
vn 0.4339211 0.4939587 -0.7534702
vn 0.414968 -0.1264701 -0.9010033
vn 0.1720918 -0.7847363 -0.5954607
vn -0.1706923 -0.9835447 0.059194
vn -0.4113956 -0.6065863 0.680299
vn -0.4094898 0.1255671 0.9036321
vn 0.9197673 -0.1911851 0.3427487
vn 0.9120246 -0.1880779 0.3644694
vn 0.9282742 -0.2432794 0.2812867
usemtl mat15
f 3//1 2//1 1//1
f 3//2 6//2 5//2 4//2 2//2
f 8//3 7//3 6//3
f 11//4 10//4 9//4
f 16//5 15//5 14//5 13//5 12//5
f 16//6 1//6 15//6
f 17//7 8//7 3//7
f 17//9 1//9 16//9
f 17//17 20//17 8//17
f 17//18 16//18 21//18
f 17//19 21//19 22//19
f 17//20 3//20 1//20
f 25//21 24//21 23//21
f 20//22 23//22 7//22
f 26//23 9//23 24//23
f 22//24 19//24 27//24
f 21//25 12//25 19//25
f 28//26 27//26 10//26
f 11//27 29//27 17//27
f 17//29 29//29 26//29
f 17//32 26//32 25//32
f 17//33 25//33 20//33
f 28//35 11//35 17//35
f 22//38 28//38 17//38
f 9//43 29//43 11//43
f 26//44 29//44 9//44
f 10//45 11//45 28//45
f 25//46 26//46 24//46
f 20//47 25//47 23//47
f 27//48 28//48 22//48
f 19//49 22//49 21//49
f 12//50 21//50 16//50
f 8//51 20//51 7//51
f 3//52 8//52 6//52
f 33//53 32//53 31//53 30//53
f 32//54 35//54 34//54 31//54
f 35//55 37//55 36//55 34//55
f 37//56 39//56 38//56 36//56
f 39//57 41//57 40//57 38//57
f 41//58 43//58 42//58 40//58
f 43//59 45//59 44//59 42//59
f 45//60 33//60 30//60 44//60
f 45//61 43//61 41//61 39//61 37//61 35//61 32//61 33//61
f 46//62 42//62 44//62
f 47//63 38//63 40//63
f 47//64 48//64 36//64 38//64
f 48//65 49//65 34//65 36//65
f 49//66 50//66 31//66 34//66
f 50//67 51//67 30//67 31//67
f 51//68 46//68 44//68 30//68
f 53//69 52//69 42//69 46//69
f 52//70 54//70 40//70 42//70
f 54//71 55//71 47//71 40//71
f 55//72 56//72 48//72 47//72
f 56//73 57//73 49//73 48//73
f 57//74 58//74 50//74 49//74
f 58//75 59//75 51//75 50//75
f 59//76 53//76 46//76 51//76
f 60//77 55//77 54//77
f 61//78 56//78 55//78
f 61//79 62//79 57//79 56//79
f 62//80 63//80 58//80 57//80
f 63//81 64//81 59//81 58//81
f 64//82 53//82 59//82
f 67//83 66//83 52//83 65//83
f 53//84 65//84 52//84
f 64//85 65//85 53//85
f 55//86 60//86 61//86
f 66//87 68//87 54//87 52//87
f 68//88 69//88 60//88 54//88
f 69//89 70//89 61//89 60//89
f 70//90 71//90 62//90 61//90
f 71//91 72//91 63//91 62//91
f 72//92 73//92 64//92 63//92
f 73//93 67//93 65//93 64//93
f 73//94 72//94 71//94 70//94 69//94 68//94
f 66//95 67//95 73//95
f 68//96 66//96 73//96
usemtl mat8
f 17//8 14//8 15//8
f 17//41 2//41 4//41
usemtl mat22
f 17//10 18//10 2//10
usemtl mat10
f 18//11 15//11 1//11
usemtl mat12
f 17//12 19//12 12//12
f 17//14 6//14 7//14
f 23//31 24//31 17//31
f 17//36 10//36 27//36
usemtl mat13
f 17//13 5//13 6//13
f 17//39 12//39 13//39
usemtl mat23
f 18//15 17//15 15//15
usemtl mat9
f 18//16 1//16 2//16
usemtl mat5
f 17//28 9//28 10//28
f 17//37 27//37 19//37
usemtl mat3
f 24//30 9//30 17//30
f 7//34 23//34 17//34
usemtl mat14
f 17//40 4//40 5//40
f 17//42 13//42 14//42
usemtl mat20
f 77//97 76//97 75//97 74//97
f 76//98 79//98 78//98 75//98
f 79//99 81//99 80//99 78//99
f 81//100 83//100 82//100 80//100
f 83//101 85//101 84//101 82//101
f 85//102 87//102 86//102 84//102
f 87//103 89//103 88//103 86//103
f 89//104 77//104 74//104 88//104
f 89//105 87//105 85//105 83//105 81//105 79//105 76//105 77//105
f 90//106 86//106 88//106
f 91//107 82//107 84//107
f 91//108 92//108 80//108 82//108
f 92//109 93//109 78//109 80//109
f 93//110 94//110 75//110 78//110
f 94//111 95//111 74//111 75//111
f 95//112 90//112 88//112 74//112
f 97//113 96//113 86//113 90//113
f 96//114 98//114 84//114 86//114
f 98//115 99//115 91//115 84//115
f 99//116 100//116 92//116 91//116
f 100//117 101//117 93//117 92//117
f 101//118 102//118 94//118 93//118
f 102//119 103//119 95//119 94//119
f 103//120 97//120 90//120 95//120
f 104//121 99//121 98//121
f 105//122 100//122 99//122
f 105//123 106//123 101//123 100//123
f 106//124 107//124 102//124 101//124
f 107//125 108//125 103//125 102//125
f 108//126 97//126 103//126
f 111//127 110//127 96//127 109//127
f 97//128 109//128 96//128
f 108//129 109//129 97//129
f 99//130 104//130 105//130
f 110//131 112//131 98//131 96//131
f 112//132 113//132 104//132 98//132
f 113//133 114//133 105//133 104//133
f 114//134 115//134 106//134 105//134
f 115//135 116//135 107//135 106//135
f 116//136 117//136 108//136 107//136
f 117//137 111//137 109//137 108//137
f 117//138 116//138 115//138 114//138 113//138 112//138
f 110//139 111//139 117//139
f 112//140 110//140 117//140
