# Blender v2.78 (sub 0) OBJ File: '16.blend'
# www.blender.org
mtllib Star_01.mtl
g Circle.001_Circle.007
v 0.000000 2.350135 -0.384616
v -2.005174 3.806980 -0.384616
v -1.239265 6.164203 -0.384616
v 1.239266 6.164203 -0.384616
v 2.005174 3.806979 -0.384616
v 0.000000 4.458500 -1.652498
v 5.218178 6.153989 -0.384616
v 0.000001 9.945218 -0.384616
v -5.218178 6.153989 -0.384616
v 3.225012 0.019652 -0.384616
v -3.225011 0.019653 -0.384616
v 0.000000 4.458500 0.883266
vn 0.3490 -0.4829 0.8031
vn -0.5672 0.1827 -0.8031
vn 0.3515 -0.4812 -0.8031
vn -0.0015 0.5958 0.8031
vn 0.0015 0.5958 -0.8031
vn -0.3515 -0.4812 -0.8031
vn -0.5662 0.1856 0.8031
vn 0.3515 -0.4812 0.8031
vn 0.3490 -0.4829 -0.8031
vn -0.5662 0.1856 -0.8031
vn -0.5672 0.1827 0.8031
vn 0.0015 0.5958 0.8031
vn -0.3490 -0.4829 -0.8031
vn -0.3515 -0.4812 0.8031
vn 0.5672 0.1827 -0.8031
vn -0.3490 -0.4829 0.8031
vn -0.0015 0.5958 -0.8031
vn 0.5672 0.1827 0.8031
vn 0.5662 0.1856 -0.8031
vn 0.5662 0.1856 0.8031
usemtl FF9800
s off
f 11//1 1//1 12//1
f 11//2 2//2 6//2
f 7//3 5//3 6//3
f 12//4 3//4 9//4
f 7//5 6//5 4//5
f 9//6 6//6 2//6
f 8//7 3//7 12//7
f 7//8 12//8 5//8
f 11//9 6//9 1//9
f 8//10 6//10 3//10
f 11//11 12//11 2//11
f 7//12 4//12 12//12
f 6//13 10//13 1//13
f 9//14 2//14 12//14
f 10//15 6//15 5//15
f 12//16 1//16 10//16
f 6//17 9//17 3//17
f 10//18 5//18 12//18
f 6//19 8//19 4//19
f 12//20 4//20 8//20
